<svg xmlns="http://www.w3.org/2000/svg" viewBox="0 0 1024 1024" role="img" aria-label="Bai cut mark">
  <rect width="1024" height="1024" fill="#f5e5c6"/>
  <g opacity="0.28" fill="#111820">
    <rect x="824" y="188" width="18" height="18"/>
    <rect x="872" y="212" width="18" height="18"/>
    <rect x="800" y="260" width="18" height="18"/>
    <rect x="896" y="292" width="18" height="18"/>
    <rect x="152" y="746" width="18" height="18"/>
    <rect x="200" y="770" width="18" height="18"/>
    <rect x="176" y="818" width="18" height="18"/>
  </g>
  <g fill="#111820">
    <rect x="294" y="222" width="436" height="90" rx="8"/>
    <rect x="226" y="322" width="96" height="460" rx="8"/>
    <rect x="702" y="322" width="96" height="460" rx="8"/>
    <rect x="226" y="692" width="572" height="96" rx="8"/>
    <rect x="324" y="458" width="376" height="88" rx="8"/>
  </g>
  <path d="M620 214L786 214L486 810L320 810Z" fill="#f5e5c6"/>
  <path d="M628 238L760 238L462 786L332 786Z" fill="#b1761f"/>
  <rect x="574" y="610" width="94" height="94" rx="14" fill="#111820"/>
  <rect x="612" y="648" width="38" height="38" rx="6" fill="#f5e5c6"/>
</svg>
